<?xml version="1.0" encoding="utf-8"?>
<!-- Generator: Adobe Illustrator 16.0.0, SVG Export Plug-In . SVG Version: 6.00 Build 0)  -->
<!DOCTYPE svg PUBLIC "-//W3C//DTD SVG 1.1//EN" "http://www.w3.org/Graphics/SVG/1.1/DTD/svg11.dtd">
<svg version="1.1" id="Layer_1" xmlns="http://www.w3.org/2000/svg" xmlns:xlink="http://www.w3.org/1999/xlink" x="0px" y="0px"
	 width="300px" height="300px" viewBox="0 0 300 300" enable-background="new 0 0 300 300" xml:space="preserve">
<g>
	<polygon fill="#1C75BC" points="249.64,149.947 249.64,202.479 295.127,176.208 295.127,123.688 286.288,128.789 	"/>
	<polygon fill="#103D5B" points="249.37,95.171 249.37,145.905 293.308,120.544 	"/>
	<path fill="#FFFFFF" d="M297.071,118.371l-0.126,0.071l-47.311-27.314V37.165v-2.101v-0.15l-1.689-0.972l-0.127,0.072L198.7,5.652
		l-47.554,27.449l-1.185-0.682l-0.128,0.07l-49.118-28.36L51.586,32.49l-0.12-0.07l-1.697,0.98v0.142v2.101v54.162v0.067
		L2.993,116.873l-0.121-0.071l-1.697,0.98v0.143v2.101v56.714l48.593,28.058v0.374v0.007v0.307v56.408l49.129,28.369v0.163
		l1.679,0.965l0.139-0.079l0.113,0.065l1.704-0.98v-0.134l46.561-26.893l0.076,0.044l0.14-0.078l0.113,0.064l0.296-0.171
		l46.898,27.078v0.164l1.676,0.965l0.142-0.078l0.113,0.064l1.704-0.98v-0.135l49.119-28.368v-54.973l0.27-0.154v-0.135
		l49.121-28.369v-56.714v-2.101v-0.149L297.071,118.371z M295.127,176.208l-45.487,26.271v-52.532l36.648-21.158l8.839-5.102
		V176.208z M4.811,122.119l1.175,0.683l43.783,25.267v0.388v0.306v0.007v0.308v51.525L4.811,174.638V122.119z M100.715,8.325
		l45.483,26.266l-45.483,26.257l-45.49-26.257L100.715,8.325z M200.251,286.11v-52.074v-0.135l45.482-26.267v52.203L200.251,286.11z
		 M53.403,151.176l45.488,26.267v52.209l-45.488-26.27v-0.312V151.176z M245.733,203.432l-44.958,25.971v-52.213l44.958-25.964
		V203.432z M151.657,257.682v-52.532l36.649-21.162l8.835-5.097v52.519L151.657,257.682z M243.917,91.359l-45.483,26.255
		l-45.495-26.255l45.495-26.267L243.917,91.359z M149.841,201.998l-44.928-25.927l45.486-26.271l44.925,25.944L149.841,201.998z
		 M196.616,172.291l-44.966-25.962v-0.123V94.812l0.646,0.374l44.319,25.577V172.291z M102.533,120.859v-0.135v-0.008l36.653-21.159
		l8.831-5.1v52.203v0.316l-45.483,26.273v-0.315V120.859z M149.607,89.081l-45.189-26.092l44.891-25.92L194.5,63.167L149.607,89.081
		z M100.715,65.046l45.483,26.267l-45.483,26.256l-45.49-26.256L100.715,65.046z M102.526,231.409v-52.519l1.178,0.682
		l44.319,25.577v52.532L102.526,231.409z M245.733,147.022l-45.482,26.275v-52.535L236.9,99.604l8.833-5.101V147.022z
		 M54.579,95.139l44.319,25.578v0.008v0.163v52.047v0.315l-45.495-26.273v-0.316V94.458L54.579,95.139z M246.001,88.362
		l-42.523-24.553l33.688-19.453l8.835-5.097V88.362z M97.082,62.949L53.403,88.163V37.736l1.176,0.681L97.082,62.949z
		 M199.84,61.708l-1.406-0.812l-0.297,0.171l-44.074-25.449L198.7,9.848l45.483,26.266L199.84,61.708z M49.769,94.067v49.809
		L6.631,118.974L49.769,94.067z M53.403,259.792v-52.209l45.495,26.269v0.163v52.051L53.403,259.792z M102.533,235.613l43.68,25.221
		l-43.68,25.231V235.613z M153.155,261.014l43.461-25.101v50.197L153.155,261.014z M249.37,145.905V95.171l43.938,25.373
		L249.37,145.905z"/>
	<polygon fill="#103D5B" points="203.478,63.809 246.001,88.362 246.001,39.259 237.166,44.356 	"/>
	<polygon fill="#1C75BC" points="198.7,9.848 154.062,35.619 198.137,61.068 198.434,60.896 199.84,61.708 244.184,36.114 	"/>
	<polygon fill="#103D5B" points="196.616,235.913 153.155,261.014 196.616,286.11 	"/>
	<polygon fill="#1C75BC" points="245.733,207.635 200.251,233.901 200.251,234.036 200.251,286.11 245.733,259.838 	"/>
	<polygon fill="#1C75BC" points="200.775,177.189 200.775,229.402 245.733,203.432 245.733,151.226 	"/>
	<polygon fill="#103D5B" points="53.403,37.736 53.403,88.163 97.082,62.949 54.579,38.417 	"/>
	<polygon fill="#1C75BC" points="100.715,60.848 146.199,34.591 100.715,8.325 55.225,34.591 	"/>
	<polygon fill="#1C75BC" points="149.309,37.069 104.418,62.989 149.607,89.081 194.5,63.167 	"/>
	<polygon fill="#103D5B" points="196.616,120.763 152.297,95.186 151.65,94.812 151.65,146.206 151.65,146.329 196.616,172.291 	"/>
	<polygon fill="#1C75BC" points="200.251,120.763 200.251,173.298 245.733,147.022 245.733,94.504 236.9,99.604 	"/>
	<polygon fill="#1C75BC" points="198.434,65.093 152.938,91.359 198.434,117.615 243.917,91.359 	"/>
	<polygon fill="#1C75BC" points="98.897,234.015 98.897,233.852 53.403,207.583 53.403,259.792 98.897,286.065 	"/>
	<polygon fill="#103D5B" points="146.213,260.834 102.533,235.613 102.533,286.065 	"/>
	<polygon fill="#1C75BC" points="49.769,149.078 49.769,148.77 49.769,148.763 49.769,148.457 49.769,148.069 5.985,122.802 
		4.811,122.119 4.811,174.638 49.769,200.603 	"/>
	<polygon fill="#103D5B" points="49.769,94.067 6.631,118.974 49.769,143.875 	"/>
	<polygon fill="#1C75BC" points="53.403,203.382 98.891,229.651 98.891,177.442 53.403,151.176 53.403,203.069 	"/>
	<polygon fill="#1C75BC" points="148.023,257.682 148.023,205.149 103.704,179.572 102.526,178.891 102.526,231.409 	"/>
	<polygon fill="#1C75BC" points="197.142,178.891 188.307,183.987 151.657,205.149 151.657,257.682 197.142,231.409 	"/>
	<polygon fill="#103D5B" points="195.323,175.745 150.398,149.801 104.913,176.071 149.841,201.998 	"/>
	<polygon fill="#1C75BC" points="53.403,146.661 53.403,146.977 98.897,173.25 98.897,172.935 98.897,120.887 98.897,120.725 
		98.897,120.717 54.579,95.139 53.403,94.458 	"/>
	<polygon fill="#103D5B" points="102.533,172.935 102.533,173.25 148.016,146.977 148.016,146.661 148.016,94.458 139.186,99.558 
		102.533,120.717 102.533,120.725 102.533,120.859 	"/>
	<polygon fill="#1C75BC" points="100.715,117.569 146.199,91.313 100.715,65.046 55.225,91.313 	"/>
</g>
</svg>
